<?xml version="1.0" encoding="utf-8"?>
<!-- Generator: Adobe Illustrator 25.4.1, SVG Export Plug-In . SVG Version: 6.00 Build 0)  -->
<svg version="1.1" id="Capa_1" xmlns="http://www.w3.org/2000/svg" xmlns:xlink="http://www.w3.org/1999/xlink" x="0px" y="0px"
	 viewBox="412 586 51 67" style="enable-background:new 412 586 51 67;" xml:space="preserve">
<style type="text/css">
	.st0{fill:#FFFFFF;stroke:#FFFFFF;stroke-miterlimit:10;}
	.st1{fill:none;stroke:#FFFFFF;stroke-width:2.5;stroke-miterlimit:10;}
</style>
<g>
	<path class="st0" d="M438.26,643.86c-0.24,0-0.46-0.11-0.61-0.29c-0.69-0.83-16.89-20.53-16.89-29.94c0-9.66,7.84-17.5,17.5-17.5
		s17.5,7.84,17.5,17.5c0,9.4-16.2,29.1-16.89,29.94C438.73,643.76,438.5,643.86,438.26,643.86z M438.26,597.73
		c-8.78,0.01-15.9,7.13-15.91,15.91c0,7.85,12.92,24.43,15.91,28.17c2.99-3.74,15.91-20.32,15.91-28.17
		C454.16,604.85,447.05,597.74,438.26,597.73z"/>
</g>
<circle class="st1" cx="438.26" cy="614.36" r="9.5"/>
</svg>
