<svg class="delivery-icon" xmlns="http://www.w3.org/2000/svg" xmlns:xlink="http://www.w3.org/1999/xlink" x="0px" y="0px" viewBox="0 0 27.88 23.87" style="enable-background:new 0 0 27.88 23.87;" xml:space="preserve">
    <g>
        <path d="M25.85,16.89c0.39-0.02,0.69-0.34,0.69-0.73c0-2.12-1.7-3.78-3.87-3.78h-0.72l-0.88-4.16c0.85-0.37,1.44-1.21,1.44-2.19
            c0-1.32-1.07-2.39-2.39-2.39h-3.39C16.33,3.64,16,3.97,16,4.38v0.92H14.2c-0.41,0-0.73,0.33-0.73,0.74c0,0.41,0.33,0.74,0.73,0.74
            H16v0.92c0,0.41,0.33,0.74,0.74,0.74h0.33c-0.61,0.72-0.98,1.65-0.98,2.66v4.19c0,0.02-0.02,0.04-0.04,0.04h-2.97
            c-0.02,0-0.03-0.01-0.04-0.03l-0.8-2.71c0.64-0.17,1.12-0.76,1.12-1.46c0-1.66-1.35-3.01-3.01-3.01H3.73
            c-1.25,0-2.26,1.02-2.26,2.26c0,1.14,0.85,2.09,1.95,2.24c-1.16,1.04-1.9,2.56-1.9,4.24v2.29c0,0.41,0.33,0.74,0.73,0.74h0.64
            c0.34,1.71,1.85,3,3.66,3c1.81,0,3.32-1.29,3.66-3h8.99c0.34,1.71,1.85,3,3.66,3c2.06,0,3.73-1.68,3.73-3.74
            C26.59,18.29,26.31,17.52,25.85,16.89L25.85,16.89z M24.95,15.42h-1.65c-0.14-0.02-0.29-0.03-0.43-0.03
            c-0.26,0-0.52,0.03-0.77,0.08v-1.62h0.58C23.75,13.85,24.64,14.5,24.95,15.42L24.95,15.42z M17.47,5.11h2.66
            c0.5,0,0.92,0.41,0.92,0.92c0,0.51-0.41,0.92-0.92,0.92h-2.66V5.11z M13.08,16.78h2.97c0.83,0,1.51-0.68,1.51-1.51v-4.19
            c0-1.26,0.89-2.33,2.07-2.59l0.99,4.71v2.95c-0.72,0.54-1.24,1.34-1.42,2.25h-7.31c-0.34-2.64-2.52-4.62-5.25-4.62
            c-1.21,0-2.3,0.4-3.16,1.08c0.71-1.33,2.11-2.24,3.72-2.24h3.52l0.91,3.07C11.82,16.34,12.42,16.78,13.08,16.78L13.08,16.78z
            M3.05,18.4c0.13-0.78,0.46-1.49,0.97-2.04c0.67-0.71,1.6-1.11,2.62-1.11c1.9,0,3.43,1.33,3.76,3.14H3.05z M3.73,11.15
            c-0.44,0-0.79-0.35-0.79-0.79S3.3,9.57,3.73,9.57h6.62c0.85,0,1.54,0.69,1.54,1.54c-0.01,0.03-0.05,0.05-0.14,0.04
            c-0.61,0-0.44,0-0.56,0C10.31,11.15,3.74,11.15,3.73,11.15L3.73,11.15z M6.55,21.4c-0.99,0-1.83-0.64-2.14-1.53h4.28
            C8.38,20.76,7.54,21.4,6.55,21.4L6.55,21.4z M22.86,21.4c-1.25,0-2.26-1.02-2.26-2.27c0-1.25,1.02-2.27,2.26-2.27
            c1.25,0,2.26,1.02,2.26,2.27C25.12,20.38,24.11,21.4,22.86,21.4L22.86,21.4z M22.86,21.4"/>
        <path d="M23.6,19.13c0,0.41-0.33,0.74-0.74,0.74c-0.41,0-0.74-0.33-0.74-0.74s0.33-0.74,0.74-0.74
            C23.27,18.39,23.6,18.72,23.6,19.13L23.6,19.13z M23.6,19.13"/>
        <path d="M2.24,5.96h6.59c0.41,0,0.73-0.33,0.73-0.74c0-0.41-0.33-0.74-0.73-0.74H2.24c-0.41,0-0.73,0.33-0.73,0.74
            C1.5,5.64,1.83,5.96,2.24,5.96L2.24,5.96z M2.24,5.96"/>
        <path d="M4.68,2.95h6.65c0.41,0,0.74-0.33,0.74-0.74c0-0.41-0.33-0.74-0.74-0.74H4.68c-0.41,0-0.73,0.33-0.73,0.74
            C3.95,2.62,4.27,2.95,4.68,2.95L4.68,2.95z M4.68,2.95"/>
    </g>
</svg>
