<?xml version="1.0" encoding="iso-8859-1"?>
<!-- Generator: Adobe Illustrator 25.4.1, SVG Export Plug-In . SVG Version: 6.00 Build 0)  -->
<svg version="1.1" id="Layer_1" xmlns="http://www.w3.org/2000/svg" xmlns:xlink="http://www.w3.org/1999/xlink" x="0px" y="0px"
	 viewBox="396.957 593.217 66.043 59.783" style="enable-background:new 396.957 593.217 66.043 59.783;" xml:space="preserve">
<rect x="415.287" y="616.404" style="fill:#FFFFFF;stroke:#FFFFFF;stroke-miterlimit:10;" width="16.392" height="2.186"/>
<rect x="415.287" y="624.054" style="fill:#FFFFFF;stroke:#FFFFFF;stroke-miterlimit:10;" width="21.856" height="2.186"/>
<rect x="415.287" y="631.704" style="fill:#FFFFFF;stroke:#FFFFFF;stroke-miterlimit:10;" width="21.856" height="2.186"/>
<path style="fill:#FFFFFF;stroke:#FFFFFF;stroke-miterlimit:10;" d="M453.67,598.919h-46.987c-3.014,0-5.603,2.317-5.603,5.333
	v19.659c0,3.016,2.451,5.47,5.464,5.47c1.235,0,2.459-0.427,3.278-1.12v19.698c0,0.604,0.626,1.229,1.229,1.229h38.249
	c0.604,0,0.956-0.626,0.956-1.229v-19.698c1.093,0.693,2.044,1.12,3.278,1.12c3.013,0,5.464-2.454,5.464-5.47v-19.659
	C459,601.236,456.685,598.919,453.67,598.919z M448.072,647.003h-36.063v-23.082v-10.932c0-0.602,0.63-0.956,1.237-0.956h33.861
	c0.607,0,0.964,0.354,0.964,0.956v10.932V647.003z M456.814,623.911c0,1.811-1.471,3.284-3.278,3.284
	c-1.808,0-3.278-1.469-3.278-3.274v-10.932v-0.956h2.186v-2.186h-5.336h-33.861h-5.609v2.186h2.186v0.956v10.932
	c0,1.805-1.471,3.274-3.278,3.274c-1.808,0-3.278-1.473-3.278-3.284v-19.659c0-1.811,1.608-3.148,3.417-3.148h46.987
	c1.809,0,3.144,1.337,3.144,3.148V623.911z"/>
</svg>
