<svg xmlns="http://www.w3.org/2000/svg" xmlns:xlink="http://www.w3.org/1999/xlink" x="0px" y="0px" viewBox="0 0 594.17 570.96" style="enable-background:new 0 0 594.17 570.96;" xml:space="preserve">
    <style>
        .gps-icon-st0{fill:#FFFFFF;}
    </style>
    <g>
        <path class="gps-icon-st0" d="M308.47,199.5c-48.05,0-87.14,39.09-87.14,87.15c0,48.05,39.09,87.14,87.14,87.14
            c48.05,0,87.15-39.09,87.15-87.14C395.62,238.59,356.53,199.5,308.47,199.5L308.47,199.5z M308.47,343.79
            c-31.51,0-57.15-25.64-57.15-57.15c0-31.51,25.64-57.15,57.15-57.15c31.51,0,57.15,25.64,57.15,57.15
            C365.63,318.15,339.99,343.79,308.47,343.79L308.47,343.79z M308.47,343.79"/>
        <path class="gps-icon-st0" d="M549.62,271.65h-55.05c-7.27-91.01-80.08-163.82-171.09-171.09V45.79c0-8.28-6.71-15-15-15
            c-8.28,0-15,6.71-15,15v54.76c-91.01,7.27-163.82,80.08-171.09,171.09H67.61c-8.28,0-15,6.71-15,15c0,8.28,6.71,15,15,15h54.78
            c7.27,91,80.09,163.82,171.09,171.09v54.76c0,8.28,6.71,15,15,15c8.29,0,15-6.71,15-15v-54.76c91-7.27,163.82-80.08,171.09-171.09
            h55.05c8.28,0,15-6.71,15-15C564.61,278.36,557.9,271.65,549.62,271.65L549.62,271.65z M308.47,443.34
            c-86.4,0-156.7-70.29-156.7-156.7c0-86.4,70.3-156.7,156.7-156.7c86.4,0,156.7,70.29,156.7,156.7
            C465.17,373.04,394.88,443.34,308.47,443.34L308.47,443.34z M308.47,443.34"/>
    </g>
</svg>
