<svg xmlns="http://www.w3.org/2000/svg" xmlns:xlink="http://www.w3.org/1999/xlink" x="0px" y="0px" viewBox="0 0 29.58 35.67" style="enable-background:new 0 0 29.58 35.67;" xml:space="preserve">
    <style>
        .map-pin-st0{fill:#020202;}
        .map-pin-st1{fill:#FFFFFF;}
    </style>
    <g>
        <g>
            <path class="map-pin-st0" d="M23.63,8.45c-1.74-3-4.83-4.83-8.26-4.9c-0.15,0-0.29,0-0.44,0c-3.43,0.07-6.52,1.9-8.26,4.9
                c-1.78,3.07-1.83,6.75-0.13,9.85l7.1,13c0,0.01,0.01,0.01,0.01,0.02c0.31,0.54,0.87,0.87,1.5,0.87c0.63,0,1.19-0.32,1.5-0.87
                c0-0.01,0.01-0.01,0.01-0.02l7.1-13C25.45,15.2,25.41,11.51,23.63,8.45L23.63,8.45z M15.15,16.52c-2.22,0-4.03-1.81-4.03-4.03
                s1.81-4.03,4.03-4.03s4.03,1.81,4.03,4.03S17.37,16.52,15.15,16.52L15.15,16.52z M15.15,16.52"/>
        </g>
    </g>
    <rect x="15.15" y="11.82" class="map-pin-st1" width="0" height="0"/>
    <circle class="map-pin-st1" cx="15.15" cy="13.51" r="8.62"/>
    <g>
        <g>
            <path d="M15.45,12.42L15.45,12.42c-0.36,0.24-0.92-0.01-0.92-0.01c-0.05-0.02-0.1-0.03-0.15-0.01c-0.05,0.02-0.09,0.05-0.11,0.1
                c-0.05,0.1-0.01,0.21,0.09,0.26c0.01,0.01,0.33,0.16,0.7,0.16c0.23,0,0.43-0.06,0.6-0.17c0.09-0.06,0.11-0.18,0.05-0.27
                C15.66,12.38,15.54,12.36,15.45,12.42z"/>
            <path d="M17.36,12.75c0.01,0.01,0.33,0.16,0.7,0.16c0.23,0,0.43-0.06,0.6-0.17c0.04-0.03,0.07-0.07,0.08-0.12
                c0.01-0.05,0-0.1-0.03-0.14c-0.06-0.09-0.18-0.11-0.27-0.05c-0.36,0.24-0.92-0.01-0.92-0.01c-0.05-0.02-0.1-0.03-0.15-0.01
                c-0.05,0.02-0.09,0.05-0.11,0.1C17.22,12.59,17.26,12.71,17.36,12.75z"/>
            <path d="M16.66,13.72c0.11,0,0.22-0.03,0.32-0.08h0c0.22-0.12,0.36-0.34,0.36-0.58c0-0.36-0.31-0.66-0.69-0.66
                c-0.11,0-0.19,0.09-0.19,0.19c0,0.11,0.09,0.19,0.19,0.19c0.17,0,0.3,0.12,0.3,0.27c0,0.09-0.06,0.19-0.16,0.24
                c-0.04,0.02-0.14,0.07-0.25,0c-0.09-0.06-0.21-0.03-0.27,0.06c-0.06,0.09-0.03,0.21,0.06,0.27
                C16.43,13.69,16.54,13.72,16.66,13.72z"/>
            <path d="M21.15,20.03l0-0.18c0-0.57-0.21-0.85-0.39-0.99l0.15-1.01c0.03-0.17-0.02-0.34-0.13-0.47c-0.11-0.13-0.27-0.2-0.45-0.2
                h-1.44v-1.41c0-0.01,0-0.02,0-0.02c0.01-0.18-0.08-0.35-0.22-0.45l-0.11-0.09c0.15-0.19,0.27-0.4,0.38-0.64
                c0.21-0.48,0.32-1,0.32-1.46l0-1.72c0-0.06,0-0.13,0-0.21c0-0.16,0-0.33,0-0.47l0-0.07c-0.01-0.11-0.01-0.19-0.03-0.26
                c-0.37-2.05-2.2-3.43-4.57-3.43c-2.59,0-4.7,1.99-4.7,4.44c0,0.77,0.19,1.52,0.54,2.16c-0.01,0.06-0.02,0.12-0.02,0.17
                c0,0.5,0.35,0.93,0.84,1.04l0,0.3c0,0.1,0.09,0.19,0.19,0.19h0.72c0.27,0.38,0.56,0.67,1.07,0.83c0.43,0.13,0.47,0.22,0.47,0.52
                c-1.85,0.63-3.09,2.39-3.09,4.41v0.88c0,0.11,0.09,0.19,0.19,0.19c0.1,0,0.19-0.08,0.19-0.18l0-0.89c0-1.85,1.13-3.47,2.83-4.05
                c0.02,0.01,0.05,0.02,0.07,0.02c0.25,0,0.51,0,0.79,0l0.05,0c0.57,0,1.17,0,1.68,0c0.16,0.06,0.32,0.12,0.47,0.2h-0.18
                c-0.18,0-0.34,0.07-0.45,0.2c-0.11,0.13-0.16,0.29-0.14,0.47l0.62,4.57c0.05,0.34,0.36,0.61,0.71,0.61h2.01
                c0.34,0,0.66-0.27,0.71-0.61l0.12-0.81h0.05c0.19,0,0.35-0.06,0.47-0.18C21.15,21.16,21.15,20.67,21.15,20.03z M16.34,16.6
                c-0.1,0-0.2,0-0.3,0c-0.41,0-0.84,0-1.27,0l-0.61,0c0-0.01,0-0.02,0-0.03c-0.01-0.42-0.13-0.66-0.74-0.85
                c-0.41-0.13-0.63-0.34-0.85-0.65c-0.03-0.04-0.06-0.09-0.09-0.14c-0.03-0.05-0.15-0.35-0.18-0.48c0-0.01,0-0.01,0-0.02
                c0.01-0.06,0-0.12-0.04-0.16c-0.02-0.02-0.04-0.04-0.07-0.05c-0.07-0.03-0.14-0.02-0.19,0.02l-0.01,0.01
                c-0.03,0.03-0.07,0.05-0.11,0.07c-0.08,0.04-0.16,0.07-0.25,0.08c-0.05,0.01-0.11,0.01-0.16,0c-0.09-0.01-0.18-0.04-0.26-0.09
                c-0.13-0.08-0.23-0.2-0.29-0.34c-0.03-0.08-0.05-0.16-0.05-0.24l0-0.03c0-0.06,0.01-0.12,0.03-0.18c0.09-0.28,0.35-0.47,0.64-0.47
                c0.13,0,0.25,0.04,0.36,0.11c0.05,0.03,0.1,0.04,0.15,0.02c0.05-0.01,0.1-0.05,0.12-0.09l1.23-2.23h5.46v2.27
                c0,0.42-0.1,0.88-0.29,1.31c-0.09,0.21-0.2,0.39-0.33,0.55l-1.1-0.86c-0.24-0.16-0.57-0.1-0.73,0.14
                c-0.16,0.23-0.1,0.56,0.13,0.72l0.82,0.65c-0.01,0-0.01,0-0.02,0.01c-0.09,0.03-0.18,0.05-0.27,0.08c-0.2,0.05-0.39,0.1-0.53,0.24
                C16.4,16.08,16.36,16.41,16.34,16.6z M18.14,15.76l-1.38-1.09c-0.03-0.02-0.05-0.05-0.06-0.09c-0.01-0.04,0-0.07,0.02-0.1
                c0.04-0.06,0.14-0.07,0.19-0.04l1.51,1.17l0.01,0.01c0.04,0.03,0.06,0.07,0.06,0.12c0,0.01,0,0.02,0,0.03l0,1.41h-0.28v-1.28
                C18.21,15.85,18.19,15.8,18.14,15.76z M16.73,16.67c0.01-0.22,0.06-0.42,0.08-0.44c0.07-0.07,0.19-0.1,0.35-0.14
                c0.09-0.02,0.19-0.05,0.3-0.09c0.07-0.03,0.15-0.06,0.23-0.1l0.13,0.1v1.18h-0.13C17.39,16.97,17.07,16.8,16.73,16.67z
                M19.85,22.37c-0.02,0.15-0.18,0.28-0.33,0.28h-2.01c-0.15,0-0.3-0.13-0.32-0.28l-0.13-0.94h0.66c0.11,0,0.19-0.09,0.19-0.19
                c0-0.11-0.09-0.19-0.19-0.19h-0.71l-0.04-0.33h0.75c0.11,0,0.19-0.09,0.19-0.19c0-0.11-0.09-0.19-0.19-0.19h-0.8L16.87,20h0.92
                c0.11,0,0.19-0.09,0.19-0.19c0-0.11-0.09-0.19-0.19-0.19h-0.98l-0.04-0.33h1.02c0.11,0,0.19-0.09,0.19-0.19
                c0-0.11-0.09-0.19-0.19-0.19h-1.07l-0.04-0.33h1.12c0.06,0,0.11-0.02,0.15-0.07c0.03-0.04,0.05-0.08,0.05-0.12
                c0-0.05-0.02-0.09-0.05-0.13c-0.04-0.04-0.09-0.07-0.15-0.07h-1.17l-0.05-0.39c-0.01-0.06,0.01-0.12,0.04-0.16
                c0.04-0.04,0.09-0.07,0.16-0.07h3.55c0.06,0,0.12,0.02,0.16,0.06c0.04,0.04,0.05,0.1,0.04,0.16l-0.14,0.92h-0.57
                c-0.28,0-0.51,0.23-0.51,0.51c0,0.12,0.04,0.22,0.11,0.31c-0.03,0.04-0.06,0.08-0.07,0.13c-0.02,0.06-0.04,0.12-0.04,0.19
                c0,0.11,0.04,0.22,0.11,0.31c-0.03,0.04-0.05,0.08-0.07,0.12c-0.03,0.06-0.04,0.13-0.04,0.19c0,0.11,0.03,0.21,0.09,0.29
                c0.03,0.04,0.08,0.08,0.13,0.11l0,0.02c-0.03,0.06-0.05,0.13-0.05,0.2c0,0.07,0.02,0.15,0.06,0.22c0.08,0.16,0.25,0.27,0.43,0.28
                L19.85,22.37z M20.61,21.16c-0.05,0.04-0.11,0.07-0.2,0.07h-0.4c-0.07,0-0.15-0.06-0.15-0.12c0-0.05,0.07-0.11,0.14-0.12h0.33
                c0.03,0,0.05-0.01,0.08-0.02c0.07-0.03,0.11-0.1,0.11-0.17c0-0.05-0.02-0.11-0.07-0.14c-0.04-0.03-0.08-0.05-0.13-0.05l-0.28,0
                c-0.01,0-0.03,0-0.05,0c-0.08,0-0.18,0-0.26-0.03c-0.05-0.02-0.07-0.04-0.07-0.09c0-0.07,0.06-0.12,0.13-0.12h0.67l0.01,0
                c0.1-0.01,0.18-0.09,0.18-0.19c0-0.08-0.05-0.16-0.14-0.18c-0.01,0-0.03-0.01-0.06-0.01h-0.67c-0.07,0-0.13-0.05-0.13-0.12
                c0-0.07,0.06-0.12,0.14-0.12h0.65c0.06,0,0.11-0.03,0.15-0.07c0.03-0.04,0.04-0.08,0.04-0.12c0-0.03-0.01-0.05-0.02-0.08
                c-0.03-0.07-0.1-0.12-0.18-0.12l-0.68,0c-0.06-0.01-0.11-0.06-0.11-0.12c0-0.07,0.06-0.12,0.13-0.12l0.57,0
                c0.02,0,0.12,0.03,0.21,0.14c0.11,0.13,0.17,0.34,0.17,0.61l0,0.18C20.76,20.54,20.76,21.01,20.61,21.16z"/>
        </g>
    </g>
</svg>
