<svg class="parking-icon" xmlns="http://www.w3.org/2000/svg" version="1.1" xmlns:xlink="http://www.w3.org/1999/xlink" x="0px" y="0px" viewBox="0 0 30.33 29.35" style="enable-background:new 0 0 30.33 29.35;" xml:space="preserve">
    <style>
        .parking-w-st0{clip-path:url(#SVGID_00000117657863228921305360000011941732613163436171_);}
    </style>
    <g>
        <g>
            <defs>
                <rect style="fill:#FFF;" id="SVGID_pk1w_" x="2.41" y="2.22" width="25" height="25"/>
            </defs>
            <clipPath style="fill:#FFF;" id="SVGID_00000106855062263031881960000008198091311043003568_">
                <use xlink:href="#SVGID_pk1w_"  style="overflow:visible;"/>
            </clipPath>
            <path style="fill:#FFF;clip-path:url(#SVGID_00000106855062263031881960000008198091311043003568_);" d="M14.91,2.22
                c-5.06,0-9.61,3.05-11.55,7.72C1.43,14.6,2.5,19.98,6.07,23.56c3.58,3.57,8.95,4.64,13.62,2.71c4.67-1.93,7.72-6.49,7.72-11.55
                C27.41,7.82,21.81,2.23,14.91,2.22L14.91,2.22z M14.91,25.13c-4.21,0-8.01-2.54-9.62-6.43c-1.61-3.89-0.72-8.37,2.26-11.35
                c2.98-2.98,7.46-3.87,11.35-2.26c3.89,1.61,6.43,5.41,6.43,9.62C25.32,20.47,20.66,25.13,14.91,25.13L14.91,25.13z M14.91,25.13"
                />
        </g>
        <path style="fill:#FFF;" d="M16.48,9.51h-3.65c-0.58,0-1.04,0.47-1.04,1.04v10.42h2.08V16.8h2.6c2.01,0,3.65-1.63,3.65-3.65S18.49,9.51,16.48,9.51
            L16.48,9.51z M16.48,14.72h-2.6v-3.13h2.6c0.86,0,1.56,0.7,1.56,1.56C18.04,14.02,17.34,14.72,16.48,14.72L16.48,14.72z
            M16.48,14.72"/>
    </g>
</svg>
