<svg class="takeout-icon" xmlns="http://www.w3.org/2000/svg" xmlns:xlink="http://www.w3.org/1999/xlink" x="0px" y="0px" viewBox="0 0 27 27.1" style="enable-background:new 0 0 27 27.1;" xml:space="preserve">
    <style>
        .takeout-w-st0{stroke:#FFF;stroke-width:0.5;stroke-miterlimit:10;}
    </style>
    <g>
        <path style="fill:#FFF;" class="takeout-w-st0" d="M23.16,9.56c-1.01-2.43-2.46-4.61-4.32-6.47c-0.12-0.12-0.29-0.19-0.47-0.19H8.49c-0.17,0-0.34,0.07-0.47,0.19
            C6.16,4.95,4.71,7.13,3.7,9.56c-1.01,2.43-1.52,5-1.52,7.63v7.55c0,0.36,0.3,0.66,0.66,0.66h21.18c0.36,0,0.66-0.3,0.66-0.66v-7.55
            C24.68,14.56,24.17,11.99,23.16,9.56L23.16,9.56z M7.55,24.08l-0.97-2.92h6.24l0.53,2.92H7.55z M11.5,17.38
            c0.12,0.16,0.32,0.25,0.52,0.25h0.16l0.4,2.21h-6l0.97-2.92h3.81C11.35,17.09,11.4,17.25,11.5,17.38L11.5,17.38z M12.86,16.31
            l0.38-1.51h6.74l0.38,1.51H12.86z M18.53,24.08h-3.84l-1.17-6.45h6.19L18.53,24.08z M23.36,24.08h-3.49l1.17-6.45h0.16
            c0.2,0,0.39-0.09,0.52-0.25c0.12-0.16,0.17-0.37,0.12-0.57l-0.71-2.82c-0.07-0.29-0.34-0.5-0.64-0.5h-7.77
            c-0.3,0-0.57,0.21-0.64,0.5l-0.4,1.62h-4.6c-0.28,0-0.54,0.18-0.63,0.45l-1.41,4.24c-0.05,0.14-0.05,0.28,0,0.42l1.12,3.37H3.5
            v-6.89c0-2.46,0.48-4.86,1.42-7.13c0.91-2.19,2.2-4.15,3.85-5.85h9.33c1.65,1.7,2.94,3.66,3.85,5.85c0.94,2.27,1.42,4.67,1.42,7.13
            V24.08z M23.36,24.08"/>
        <path style="fill:#FFF;" class="takeout-w-st0" d="M16.25,5.72h-5.65c-1.12,0-2.07,0.9-2.07,2.07c0,1.17,0.95,2.07,2.07,2.07h5.65c1.12,0,2.07-0.9,2.07-2.07
            C18.33,6.63,17.37,5.72,16.25,5.72L16.25,5.72z M16.25,8.55h-5.65c-0.41,0-0.75-0.33-0.75-0.75c0-0.42,0.34-0.75,0.75-0.75h5.65
            c0.41,0,0.75,0.33,0.75,0.75C17.01,8.21,16.67,8.55,16.25,8.55L16.25,8.55z M16.25,8.55"/>
    </g>
</svg>
