<?xml version="1.0" encoding="utf-8"?>
<!-- Generator: Adobe Illustrator 25.4.1, SVG Export Plug-In . SVG Version: 6.00 Build 0)  -->
<svg version="1.1" id="레이어_1" xmlns="http://www.w3.org/2000/svg" xmlns:xlink="http://www.w3.org/1999/xlink" x="0px"
	 y="0px" viewBox="0 0 50 50" style="enable-background:new 0 0 50 50;" xml:space="preserve">
<style type="text/css">
	.st0{fill:#FFFFFF;stroke:#FFFFFF;stroke-width:0.5;stroke-miterlimit:10;}
</style>
<g>
	<g>
		<path class="st0" d="M32.96,45.7c0.17,0.01,0.34,0.02,0.51,0.02c1.84,0,3.38-0.67,4.58-1.97l0.03-0.03
			c0.43-0.52,0.92-0.99,1.43-1.48c0.35-0.34,0.71-0.68,1.05-1.04c1.61-1.68,1.6-3.8-0.02-5.42l-4.47-4.47
			c-0.77-0.8-1.68-1.22-2.66-1.22c-0.96,0-1.89,0.42-2.68,1.21l-2.64,2.64c-0.23-0.13-0.48-0.25-0.71-0.37
			c-0.3-0.15-0.57-0.29-0.82-0.44c-2.42-1.54-4.62-3.54-6.72-6.12c-1.06-1.33-1.76-2.45-2.25-3.59c0.69-0.63,1.33-1.28,1.95-1.91
			c0.23-0.23,0.45-0.46,0.69-0.7c1.68-1.68,1.68-3.75,0-5.42l-2.22-2.22c-0.26-0.26-0.51-0.52-0.76-0.77c-0.49-0.5-1-1.03-1.51-1.5
			c-0.77-0.77-1.68-1.17-2.64-1.17c-0.96,0-1.88,0.4-2.68,1.17l-2.78,2.77c-1.02,1.02-1.6,2.26-1.72,3.69
			c-0.14,1.79,0.19,3.68,1.03,5.97c1.31,3.53,3.28,6.82,6.19,10.33c3.55,4.23,7.81,7.58,12.69,9.94
			C27.71,44.49,30.2,45.52,32.96,45.7L32.96,45.7z M14.65,32.43c-2.77-3.34-4.63-6.44-5.86-9.76c-0.76-2.05-1.04-3.64-0.92-5.15
			c0.09-0.98,0.46-1.79,1.17-2.49l2.77-2.77c0.42-0.41,0.89-0.62,1.34-0.62c0.45,0,0.89,0.21,1.31,0.63
			c0.49,0.46,0.97,0.95,1.47,1.46c0.25,0.26,0.51,0.52,0.78,0.78l2.22,2.22c0.91,0.91,0.91,1.8,0,2.71
			c-0.23,0.24-0.47,0.47-0.7,0.71c-0.69,0.7-1.33,1.36-2.05,1.99l-0.04,0.04c-0.63,0.63-0.54,1.25-0.38,1.7
			c0.01,0.02,0.02,0.04,0.02,0.06c0.57,1.38,1.38,2.69,2.62,4.26c2.23,2.75,4.58,4.89,7.19,6.54c0.32,0.2,0.66,0.38,0.99,0.54
			c0.3,0.15,0.57,0.29,0.82,0.44c0.03,0.02,0.06,0.03,0.09,0.05c0.25,0.13,0.49,0.19,0.74,0.19c0.62,0,1.01-0.39,1.14-0.53
			l2.78-2.78C32.55,32.22,33,32,33.45,32c0.55,0,1,0.34,1.29,0.64l4.48,4.48c1.1,1.1,0.6,2.08-0.02,2.74
			c-0.31,0.34-0.64,0.65-0.99,0.99c-0.53,0.5-1.07,1.03-1.56,1.61c-0.85,0.91-1.85,1.33-3.16,1.33c-0.13,0-0.26-0.01-0.38-0.02
			c-2.44-0.16-4.69-1.11-6.39-1.91C22.07,39.64,18.02,36.46,14.65,32.43L14.65,32.43z M14.65,32.43"/>
		<path class="st0" d="M26.9,14.49c-0.52-0.09-1.02,0.27-1.11,0.78c-0.09,0.52,0.27,1.02,0.78,1.1c2.16,0.37,4.11,1.39,5.68,2.95
			c1.56,1.56,2.58,3.53,2.95,5.68c0.08,0.47,0.49,0.8,0.95,0.8c0.05,0,0.11-0.01,0.16-0.02c0.53-0.09,0.88-0.59,0.78-1.11
			c-0.43-2.55-1.64-4.87-3.48-6.72C31.76,16.12,29.44,14.92,26.9,14.49L26.9,14.49z M26.9,14.49"/>
		<path class="st0" d="M43.13,25.48c0.05,0,0.11-0.01,0.16-0.02c0.52-0.09,0.88-0.59,0.78-1.11c-0.71-4.22-2.7-8.05-5.75-11.1
			c-3.06-3.05-6.89-5.04-11.1-5.75c-0.52-0.09-1.02,0.27-1.11,0.78c-0.09,0.53,0.27,1.02,0.78,1.11c3.82,0.65,7.3,2.45,10.06,5.22
			c2.77,2.77,4.57,6.25,5.22,10.06C42.26,25.15,42.66,25.48,43.13,25.48L43.13,25.48z M43.13,25.48"/>
	</g>
</g>
</svg>
