<svg class="wifi-icon" xmlns="http://www.w3.org/2000/svg" xmlns:xlink="http://www.w3.org/1999/xlink" x="0px" y="0px" viewBox="432 622 31 31" style="enable-background:new 432 622 31 31;" xml:space="preserve">
    <style>
        .wifi-st0{stroke:#1c1c1c;stroke-width:0.25;stroke-miterlimit:10;}
    </style>
    <circle class="wifi-st0" cx="447.23" cy="645.17" r="1.42"/>
    <path class="wifi-st0" d="M457.41,634.64c-0.23,0-0.46-0.09-0.63-0.27c-2.5-2.68-5.87-4.15-9.51-4.15c-3.64,0-7.02,1.47-9.51,4.15
        c-0.32,0.35-0.87,0.37-1.21,0.04c-0.35-0.32-0.37-0.87-0.04-1.21c2.82-3.03,6.65-4.7,10.77-4.7c4.12,0,7.95,1.67,10.77,4.7
        c0.32,0.35,0.3,0.89-0.04,1.21C457.83,634.57,457.62,634.64,457.41,634.64z"/>
    <path class="wifi-st0" d="M454.28,638.21c-0.22,0-0.44-0.08-0.61-0.25c-1.76-1.78-4.03-2.75-6.39-2.75c-2.36,0-4.63,0.98-6.39,2.75
        c-0.33,0.34-0.88,0.34-1.22,0s-0.34-0.88,0-1.22c2.09-2.1,4.79-3.26,7.61-3.26c2.82,0,5.53,1.16,7.61,3.26
        c0.33,0.34,0.33,0.88,0,1.22C454.71,638.13,454.5,638.21,454.28,638.21z"/>
    <path class="wifi-st0" d="M443.62,641.78c-0.22,0-0.44-0.08-0.61-0.25c-0.33-0.34-0.33-0.88,0.01-1.22c1.12-1.11,2.72-1.8,4.18-1.8
        c0,0,0,0,0,0h0.06c0,0,0,0,0,0c1.46,0,3.06,0.69,4.18,1.8c0.34,0.33,0.34,0.88,0.01,1.22c-0.33,0.34-0.88,0.34-1.22,0.01
        c-0.8-0.79-1.96-1.3-2.97-1.3c0,0,0,0,0,0h-0.06c0,0,0,0,0,0c-1.01,0-2.18,0.51-2.97,1.3C444.06,641.69,443.84,641.78,443.62,641.78
        z"/>
</svg>
